<?xml version="1.0" standalone="no"?>
<!DOCTYPE svg PUBLIC "-//W3C//DTD SVG 20010904//EN"
 "http://www.w3.org/TR/2001/REC-SVG-20010904/DTD/svg10.dtd">
<svg version="1.0" xmlns="http://www.w3.org/2000/svg"
 width="512.000000pt" height="512.000000pt" viewBox="0 0 512.000000 512.000000"
 preserveAspectRatio="xMidYMid meet">

<g transform="translate(0.000000,512.000000) scale(0.100000,-0.100000)"
fill="#424242" stroke="none">
<path d="M2910 4615 l-345 -345 -340 340 c-187 187 -345 340 -350 340 -9 0
-516 -506 -634 -632 l-44 -47 679 -685 c373 -377 683 -686 689 -686 5 0 318
308 695 685 l685 685 -345 345 -345 345 -345 -345z"/>
<path d="M502 3587 l-342 -342 345 -345 345 -345 -345 -345 -345 -345 345
-345 345 -345 685 685 c377 377 685 689 685 695 0 10 -1360 1375 -1370 1375
-3 0 -159 -154 -348 -343z"/>
<path d="M3582 3247 c-375 -375 -682 -687 -682 -692 0 -6 308 -318 685 -695
l685 -685 345 345 345 345 -345 345 -345 345 345 345 345 345 -342 342 c-189
189 -345 343 -348 343 -3 0 -312 -307 -688 -683z"/>
<path d="M1873 1521 l-682 -687 342 -342 342 -342 345 345 345 345 345 -345
345 -345 345 345 345 345 -685 685 c-377 377 -689 685 -695 684 -5 -1 -317
-310 -692 -688z"/>
</g>
</svg>
